<svg width="20" height="18" viewBox="0 0 20 18" fill="none" xmlns="http://www.w3.org/2000/svg">
<path d="M10.5 0.5625C15.7324 0.5625 19.9629 4.05078 19.9629 8.28125C19.9629 12.5488 15.7324 16 10.5 16C9.27539 16 8.08789 15.8145 7.04883 15.4805C5.93555 16.2598 4.1543 17.1875 1.89062 17.1875C1.51953 17.1875 1.18555 17.002 1.03711 16.668C0.925781 16.334 0.962891 15.9629 1.22266 15.7031C1.25977 15.7031 2.41016 14.4414 2.92969 12.9941C1.70508 11.6953 1 10.0625 1 8.28125C1 4.05078 5.23047 0.5625 10.5 0.5625ZM10.5 14.2188C14.7305 14.2188 18.2188 11.584 18.2188 8.28125C18.2188 5.01562 14.7305 2.34375 10.5 2.34375C6.23242 2.34375 2.78125 5.01562 2.78125 8.28125C2.78125 9.87695 3.56055 11.0645 4.22852 11.7695L5.00781 12.5859L4.59961 13.625C4.41406 14.1445 4.1543 14.6641 3.85742 15.1094C4.74805 14.8125 5.49023 14.4043 6.00977 14.0332L6.71484 13.5137L7.56836 13.7734C8.49609 14.0703 9.49805 14.2188 10.5 14.2188Z" fill="#A6A6A6"/>
</svg>
