<svg width="19" height="18" viewBox="0 0 19 18" fill="none" xmlns="http://www.w3.org/2000/svg">
<path d="M0 6.46289V6.27734C0 3.67969 1.85547 1.45312 4.41602 1.04492C6.08594 0.748047 7.83008 1.30469 9.05469 2.5293L9.5 2.9375L9.9082 2.5293C11.1328 1.30469 12.877 0.748047 14.5469 1.04492C17.1074 1.45312 19 3.67969 19 6.27734V6.46289C19 8.02148 18.332 9.50586 17.2188 10.5449L10.502 16.8164C10.2422 17.0762 9.87109 17.1875 9.5 17.1875C9.0918 17.1875 8.7207 17.0762 8.46094 16.8164L1.74414 10.5449C0.630859 9.50586 0 8.02148 0 6.46289Z" fill="#A6A6A6"/>
</svg>
